PathFileType	4	(X/Y/Z)	/Users/mathieubourgeois/Desktop/Analyse/Traitement/Sujet_05/Transformed_Static_Sujet_05_Tpose.trc
DataRate	CameraRate	NumFrames	NumMarkers	Units	OrigDataRate	OrigDataStartFrame	OrigNumFrames
120.000000	120.000000	4	36	mm	120.000000	203	232
Frame#	Time	RFHD			RANE			STRN			LANI			LKNE			T10			RHUM			RWRB			C7			LFWT			LTOE			RTOE			LWRA			LBWT			RBWT			RFWT			LKNI			RKNI			RKNE			LANE			RANI			LHEE			RHEE			LHUM			LRAD			RRAD			RWRA			LWRB			LFHD			LBHD			RBHD			RSHO			LSHO			CLAV			LCAR			RCAR			
		X1	Y1	Z1	X2	Y2	Z2	X3	Y3	Z3	X4	Y4	Z4	X5	Y5	Z5	X6	Y6	Z6	X7	Y7	Z7	X8	Y8	Z8	X9	Y9	Z9	X10	Y10	Z10	X11	Y11	Z11	X12	Y12	Z12	X13	Y13	Z13	X14	Y14	Z14	X15	Y15	Z15	X16	Y16	Z16	X17	Y17	Z17	X18	Y18	Z18	X19	Y19	Z19	X20	Y20	Z20	X21	Y21	Z21	X22	Y22	Z22	X23	Y23	Z23	X24	Y24	Z24	X25	Y25	Z25	X26	Y26	Z26	X27	Y27	Z27	X28	Y28	Z28	X29	Y29	Z29	X30	Y30	Z30	X31	Y31	Z31	X32	Y32	Z32	X33	Y33	Z33	X34	Y34	Z34	X35	Y35	Z35	X36	Y36	Z36	

204	1.691666666666667	-714.8980102539062	1633.109741210938	361.3233947753904	-822.8284301757812	75.6019973754883	193.7851257324218	-630.1063232421875	1203.984985351562	373.6796264648436	-536.87158203125	83.65785217285158	227.5000457763671	-464.6054382324219	480.4412536621094	257.450225830078	-643.7560424804688	1205.018310546875	149.7272644042967	-1064.223876953125	1355.5458984375	228.2471618652341	-1300.129638671875	1429.998168945312	280.3458557128903	-642.7219848632812	1435.03173828125	192.476348876953	-512.1365356445312	929.5615844726562	338.1183776855468	-472.4824218750001	34.28575897216799	385.6295166015624	-829.8019409179688	37.06647872924807	391.3535156249999	46.47283935546872	1372.512329101562	245.609649658203	-583.1420288085938	958.1276245117188	167.3099060058592	-716.5694580078125	958.8499755859375	172.544708251953	-752.1580200195312	921.90283203125	347.1380615234373	-567.8741455078125	445.9615783691406	246.6513671874999	-703.04638671875	426.337890625	262.0038757324218	-800.2283935546875	476.1039123535156	263.2246704101561	-463.85400390625	87.27720642089845	186.4075927734374	-747.3368530273438	74.00881195068361	239.7274322509765	-511.54931640625	44.57870483398438	142.2580566406249	-771.9263305664062	38.27274703979493	147.5542907714843	-208.2666625976563	1375.730102539062	202.7270965576171	-219.6847229003907	1327.813232421875	255.1961364746093	-1057.25244140625	1317.866943359375	289.5762939453123	-1312.106567382812	1360.659423828125	262.8985595703123	33.48721694946286	1441.804077148438	249.1472625732421	-566.3504028320312	1645.325805664062	360.2221069335936	-554.2470703125	1574.035034179688	223.7821197509764	-689.9733276367188	1567.383422851562	201.9092712402342	-790.780517578125	1441.478881835938	241.8751068115233	-502.4084167480469	1440.795166015625	229.0682983398436	-640.1107177734375	1379.654174804688	325.6253967285155	118.0405197143554	1425.353149414062	218.5980529785156	-1393.626098632812	1405.773803710938	240.6862182617185	
205	1.7	-714.9099731445312	1633.121948242188	361.2199096679685	-822.833740234375	75.60222625732423	193.7885589599608	-630.087158203125	1203.98681640625	373.675323486328	-536.8771362304688	83.65801239013673	227.4969787597656	-464.6051940917969	480.427490234375	257.4615173339843	-643.7478637695312	1205.015502929688	149.7031402587889	-1064.205444335938	1355.501831054688	228.2853393554685	-1300.126098632812	1429.910034179688	280.3492126464841	-642.7105712890625	1435.034423828125	192.4425659179686	-512.1218872070312	929.5573120117188	338.1152343749999	-472.4856567382813	34.28918838500979	385.6420593261718	-829.8046875	37.06164550781252	391.3558349609374	46.48638534545896	1372.44775390625	245.5973663330077	-583.115966796875	958.1317749023438	167.2980651855467	-716.557861328125	958.857421875	172.5336456298827	-752.1446533203125	921.9071655273438	347.1442260742186	-567.8555297851562	445.9591064453125	246.6732635498046	-703.0414428710938	426.3306884765625	262.0140380859374	-800.2218627929688	476.0981750488281	263.2006225585936	-463.8568115234375	87.27022552490236	186.4032440185546	-747.3387451171875	74.00445556640626	239.725845336914	-511.54541015625	44.57783889770509	142.2583770751953	-771.917236328125	38.27311706542969	147.5560760498046	-208.2704620361328	1375.693603515625	202.728057861328	-219.684066772461	1327.787475585938	255.1701202392577	-1057.22705078125	1317.837524414062	289.5912780761717	-1312.08203125	1360.572509765625	262.9025878906248	33.5010070800781	1441.75390625	249.1376495361327	-566.3582153320312	1645.345336914062	360.1491699218748	-554.2493286132812	1574.0205078125	223.718307495117	-689.957763671875	1567.352416992188	201.8344879150389	-790.7745361328125	1441.481689453125	241.8473358154295	-502.3960266113281	1440.789428710938	229.0451049804686	-640.1028442382812	1379.648559570312	325.6208190917968	118.0644073486328	1425.27685546875	218.6049652099609	-1393.606567382812	1405.662841796875	240.7031097412107	
206	1.708333333333333	-714.9205322265625	1633.137451171875	361.1405029296873	-822.8282470703125	75.59838104248048	193.7758026123046	-630.0779418945312	1203.995361328125	373.6676635742186	-536.868896484375	83.65857696533205	227.5069732666015	-464.5962829589844	480.4233703613281	257.4794311523436	-643.7394409179688	1204.995971679688	149.6827087402342	-1064.197509765625	1355.439697265625	228.2976379394529	-1300.126953125	1429.828857421875	280.356018066406	-642.6990966796875	1435.012329101562	192.4167175292967	-512.0985717773438	929.5582275390625	338.1091918945311	-472.4888916015626	34.28363418579104	385.6408691406249	-829.7937622070312	37.05944442749026	391.3515624999999	46.486701965332	1372.396606445312	245.5738372802734	-583.121337890625	958.124267578125	167.2923431396483	-716.5478515625	958.84814453125	172.5335388183592	-752.1377563476562	921.8975830078125	347.1459960937498	-567.851806640625	445.9532165527344	246.6699218749999	-703.0413818359375	426.3328247070312	262.014434814453	-800.2108154296875	476.0952758789062	263.2110290527342	-463.8536987304688	87.26858520507814	186.4100952148437	-747.3353271484375	74.01046752929689	239.7324066162109	-511.551025390625	44.56778717041016	142.2583312988281	-771.924072265625	38.27285385131837	147.5588073730468	-208.2756652832032	1375.656616210938	202.7025299072264	-219.6913299560547	1327.75341796875	255.1425476074218	-1057.209838867188	1317.79150390625	289.594512939453	-1312.043579101562	1360.48388671875	262.8978881835935	33.50905990600583	1441.674438476562	249.1205749511718	-566.3749389648438	1645.37744140625	360.0710144042967	-554.244140625	1574.016235351562	223.6608886718749	-689.9656372070312	1567.332397460938	201.763961791992	-790.7711791992188	1441.468505859375	241.8114624023436	-502.3890991210938	1440.786865234375	229.0207214355467	-640.0834350585938	1379.648803710938	325.5814208984374	118.0669479370117	1425.207397460938	218.5992584228515	-1393.619018554688	1405.53564453125	240.7186889648435	
207	1.716666666666667	-714.9373168945312	1633.15087890625	361.0653076171873	-822.8258666992188	75.60560607910158	193.7882843017577	-630.0730590820312	1203.989990234375	373.6588745117186	-536.8679809570312	83.66067504882814	227.5120544433593	-464.5873413085938	480.4262390136719	257.4905700683593	-643.738525390625	1204.998046875	149.6693572998045	-1064.17529296875	1355.384887695312	228.3011474609373	-1300.127197265625	1429.74560546875	280.3461303710935	-642.6876831054688	1435.01171875	192.397994995117	-512.0894165039062	929.5543823242188	338.1123046874999	-472.4816589355469	34.28415679931643	385.6423339843749	-829.8084106445312	37.06354904174807	391.3522949218749	46.48742294311521	1372.322998046875	245.530776977539	-583.1119384765625	958.115478515625	167.3085174560545	-716.531494140625	958.8491821289062	172.5348663330077	-752.1303100585938	921.9010620117188	347.1605834960936	-567.8470458984375	445.9598388671875	246.6764373779296	-703.0307006835938	426.324462890625	262.013214111328	-800.2078857421875	476.0922546386719	263.2291870117186	-463.8568115234375	87.27518463134767	186.4217529296874	-747.3351440429688	73.99272918701173	239.7262878417968	-511.5519409179688	44.57855606079102	142.2539062499999	-771.9302978515625	38.2778434753418	147.5585327148437	-208.2600708007813	1375.65185546875	202.6574096679686	-219.6962127685547	1327.725708007812	255.1000823974608	-1057.189208984375	1317.75537109375	289.5916137695311	-1312.037353515625	1360.406860351562	262.9158935546873	33.52378082275388	1441.608764648438	249.1062011718749	-566.394287109375	1645.401245117188	360.0059509277342	-554.2365112304688	1574.011840820312	223.6029663085936	-689.9583129882812	1567.306396484375	201.6873474121092	-790.7679443359375	1441.4599609375	241.8090972900389	-502.3788146972656	1440.781494140625	229.0000610351561	-640.0811767578125	1379.641967773438	325.5720825195311	118.0742645263672	1425.130004882812	218.5659179687499	-1393.609130859375	1405.425170898438	240.7174377441404	
